<svg xmlns="http://www.w3.org/2000/svg" xmlns:xlink="http://www.w3.org/1999/xlink" width="500" zoomAndPan="magnify" viewBox="0 0 375 374.999991" height="500" preserveAspectRatio="xMidYMid meet" version="1.0"><defs><clipPath id="a581b206cf"><path d="M 112.5 112.5 L 262.5 112.5 L 262.5 262.5 L 112.5 262.5 Z M 112.5 112.5 " clip-rule="nonzero"/></clipPath><clipPath id="eb3b3f5875"><path d="M 262.5 187.5 C 262.5 188.726562 262.46875 189.953125 262.410156 191.179688 C 262.347656 192.40625 262.257812 193.628906 262.140625 194.851562 C 262.019531 196.074219 261.867188 197.289062 261.6875 198.503906 C 261.507812 199.71875 261.296875 200.929688 261.058594 202.132812 C 260.820312 203.335938 260.550781 204.53125 260.253906 205.722656 C 259.953125 206.914062 259.625 208.097656 259.269531 209.269531 C 258.914062 210.445312 258.527344 211.609375 258.117188 212.765625 C 257.703125 213.921875 257.261719 215.066406 256.789062 216.203125 C 256.320312 217.335938 255.824219 218.457031 255.300781 219.566406 C 254.773438 220.675781 254.222656 221.773438 253.644531 222.855469 C 253.066406 223.9375 252.460938 225.003906 251.828125 226.058594 C 251.199219 227.109375 250.542969 228.148438 249.859375 229.167969 C 249.179688 230.1875 248.472656 231.191406 247.742188 232.175781 C 247.007812 233.164062 246.253906 234.128906 245.476562 235.078125 C 244.695312 236.027344 243.894531 236.957031 243.070312 237.867188 C 242.246094 238.777344 241.402344 239.664062 240.53125 240.53125 C 239.664062 241.402344 238.777344 242.246094 237.867188 243.070312 C 236.957031 243.894531 236.027344 244.695312 235.078125 245.476562 C 234.128906 246.253906 233.164062 247.007812 232.175781 247.742188 C 231.191406 248.472656 230.1875 249.179688 229.167969 249.859375 C 228.148438 250.542969 227.109375 251.199219 226.058594 251.828125 C 225.003906 252.460938 223.9375 253.066406 222.855469 253.644531 C 221.773438 254.222656 220.675781 254.773438 219.566406 255.300781 C 218.457031 255.824219 217.335938 256.320312 216.203125 256.789062 C 215.066406 257.261719 213.921875 257.703125 212.765625 258.117188 C 211.609375 258.527344 210.445312 258.914062 209.269531 259.269531 C 208.097656 259.625 206.914062 259.953125 205.722656 260.253906 C 204.53125 260.550781 203.335938 260.820312 202.132812 261.058594 C 200.929688 261.296875 199.71875 261.507812 198.503906 261.6875 C 197.289062 261.867188 196.074219 262.019531 194.851562 262.140625 C 193.628906 262.257812 192.40625 262.347656 191.179688 262.410156 C 189.953125 262.46875 188.726562 262.5 187.5 262.5 C 186.273438 262.5 185.046875 262.46875 183.820312 262.410156 C 182.59375 262.347656 181.371094 262.257812 180.148438 262.140625 C 178.925781 262.019531 177.710938 261.867188 176.496094 261.6875 C 175.28125 261.507812 174.070312 261.296875 172.867188 261.058594 C 171.664062 260.820312 170.46875 260.550781 169.277344 260.253906 C 168.085938 259.953125 166.902344 259.625 165.730469 259.269531 C 164.554688 258.914062 163.390625 258.527344 162.234375 258.117188 C 161.078125 257.703125 159.933594 257.261719 158.796875 256.789062 C 157.664062 256.320312 156.542969 255.824219 155.433594 255.300781 C 154.324219 254.773438 153.226562 254.222656 152.144531 253.644531 C 151.0625 253.066406 149.996094 252.460938 148.941406 251.828125 C 147.890625 251.199219 146.851562 250.542969 145.832031 249.859375 C 144.8125 249.179688 143.808594 248.472656 142.824219 247.742188 C 141.835938 247.007812 140.871094 246.253906 139.921875 245.476562 C 138.972656 244.695312 138.042969 243.894531 137.132812 243.070312 C 136.222656 242.246094 135.335938 241.402344 134.46875 240.53125 C 133.597656 239.664062 132.753906 238.777344 131.929688 237.867188 C 131.105469 236.957031 130.304688 236.027344 129.523438 235.078125 C 128.746094 234.128906 127.992188 233.164062 127.257812 232.175781 C 126.527344 231.191406 125.820312 230.1875 125.140625 229.167969 C 124.457031 228.148438 123.800781 227.109375 123.171875 226.058594 C 122.539062 225.003906 121.933594 223.9375 121.355469 222.855469 C 120.777344 221.773438 120.226562 220.675781 119.699219 219.566406 C 119.175781 218.457031 118.679688 217.335938 118.210938 216.203125 C 117.738281 215.066406 117.296875 213.921875 116.882812 212.765625 C 116.46875 211.609375 116.085938 210.445312 115.730469 209.269531 C 115.375 208.097656 115.046875 206.914062 114.746094 205.722656 C 114.449219 204.53125 114.179688 203.335938 113.941406 202.132812 C 113.703125 200.929688 113.492188 199.71875 113.3125 198.503906 C 113.132812 197.289062 112.980469 196.074219 112.859375 194.851562 C 112.742188 193.628906 112.652344 192.40625 112.589844 191.179688 C 112.53125 189.953125 112.5 188.726562 112.5 187.5 C 112.5 186.273438 112.53125 185.046875 112.589844 183.820312 C 112.652344 182.59375 112.742188 181.371094 112.859375 180.148438 C 112.980469 178.925781 113.132812 177.710938 113.3125 176.496094 C 113.492188 175.28125 113.703125 174.070312 113.941406 172.867188 C 114.179688 171.664062 114.449219 170.46875 114.746094 169.277344 C 115.046875 168.085938 115.375 166.902344 115.730469 165.730469 C 116.085938 164.554688 116.46875 163.390625 116.882812 162.234375 C 117.296875 161.078125 117.738281 159.933594 118.210938 158.796875 C 118.679688 157.664062 119.175781 156.542969 119.699219 155.433594 C 120.226562 154.324219 120.777344 153.226562 121.355469 152.144531 C 121.933594 151.0625 122.539062 149.996094 123.171875 148.941406 C 123.800781 147.890625 124.457031 146.851562 125.140625 145.832031 C 125.820312 144.8125 126.527344 143.808594 127.257812 142.824219 C 127.992188 141.835938 128.746094 140.871094 129.523438 139.921875 C 130.304688 138.972656 131.105469 138.042969 131.929688 137.132812 C 132.753906 136.222656 133.597656 135.335938 134.46875 134.46875 C 135.335938 133.597656 136.222656 132.753906 137.132812 131.929688 C 138.042969 131.105469 138.972656 130.304688 139.921875 129.523438 C 140.871094 128.746094 141.835938 127.992188 142.824219 127.257812 C 143.808594 126.527344 144.8125 125.820312 145.832031 125.140625 C 146.851562 124.457031 147.890625 123.800781 148.941406 123.171875 C 149.996094 122.539062 151.0625 121.933594 152.144531 121.355469 C 153.226562 120.777344 154.324219 120.226562 155.433594 119.699219 C 156.542969 119.175781 157.664062 118.679688 158.796875 118.210938 C 159.933594 117.738281 161.078125 117.296875 162.234375 116.882812 C 163.390625 116.46875 164.554688 116.085938 165.730469 115.730469 C 166.902344 115.375 168.085938 115.046875 169.277344 114.746094 C 170.46875 114.449219 171.664062 114.179688 172.867188 113.941406 C 174.070312 113.703125 175.28125 113.492188 176.496094 113.3125 C 177.710938 113.132812 178.925781 112.980469 180.148438 112.859375 C 181.371094 112.742188 182.59375 112.652344 183.820312 112.589844 C 185.046875 112.53125 186.273438 112.5 187.5 112.5 C 188.726562 112.5 189.953125 112.53125 191.179688 112.589844 C 192.40625 112.652344 193.628906 112.742188 194.851562 112.859375 C 196.074219 112.980469 197.289062 113.132812 198.503906 113.3125 C 199.71875 113.492188 200.929688 113.703125 202.132812 113.941406 C 203.335938 114.179688 204.53125 114.449219 205.722656 114.746094 C 206.914062 115.046875 208.097656 115.375 209.269531 115.730469 C 210.445312 116.085938 211.609375 116.46875 212.765625 116.882812 C 213.921875 117.296875 215.066406 117.738281 216.203125 118.210938 C 217.335938 118.679688 218.457031 119.175781 219.566406 119.699219 C 220.675781 120.226562 221.773438 120.777344 222.855469 121.355469 C 223.9375 121.933594 225.003906 122.539062 226.058594 123.171875 C 227.109375 123.800781 228.148438 124.457031 229.167969 125.140625 C 230.1875 125.820312 231.191406 126.527344 232.175781 127.257812 C 233.164062 127.992188 234.128906 128.746094 235.078125 129.523438 C 236.027344 130.304688 236.957031 131.105469 237.867188 131.929688 C 238.777344 132.753906 239.664062 133.597656 240.53125 134.46875 C 241.402344 135.335938 242.246094 136.222656 243.070312 137.132812 C 243.894531 138.042969 244.695312 138.972656 245.476562 139.921875 C 246.253906 140.871094 247.007812 141.835938 247.742188 142.824219 C 248.472656 143.808594 249.179688 144.8125 249.859375 145.832031 C 250.542969 146.851562 251.199219 147.890625 251.828125 148.941406 C 252.460938 149.996094 253.066406 151.0625 253.644531 152.144531 C 254.222656 153.226562 254.773438 154.324219 255.300781 155.433594 C 255.824219 156.542969 256.320312 157.664062 256.789062 158.796875 C 257.261719 159.933594 257.703125 161.078125 258.117188 162.234375 C 258.527344 163.390625 258.914062 164.554688 259.269531 165.730469 C 259.625 166.902344 259.953125 168.085938 260.253906 169.277344 C 260.550781 170.46875 260.820312 171.664062 261.058594 172.867188 C 261.296875 174.070312 261.507812 175.28125 261.6875 176.496094 C 261.867188 177.710938 262.019531 178.925781 262.140625 180.148438 C 262.257812 181.371094 262.347656 182.59375 262.410156 183.820312 C 262.46875 185.046875 262.5 186.273438 262.5 187.5 Z M 262.5 187.5 " clip-rule="nonzero"/></clipPath><linearGradient x1="27.500004" gradientTransform="matrix(0.15873, 0, 0, 0.15873, 108.13492, 108.134917)" y1="972.499964" x2="972.499977" gradientUnits="userSpaceOnUse" y2="27.499991" id="31ddc927e7"><stop stop-opacity="1" stop-color="rgb(27.799988%, 25.099182%, 78.799438%)" offset="0"/><stop stop-opacity="1" stop-color="rgb(27.799988%, 25.099182%, 78.799438%)" offset="0.125"/><stop stop-opacity="1" stop-color="rgb(27.799988%, 25.099182%, 78.799438%)" offset="0.140625"/><stop stop-opacity="1" stop-color="rgb(27.900696%, 25.160217%, 78.808594%)" offset="0.148438"/><stop stop-opacity="1" stop-color="rgb(28.401184%, 25.465393%, 78.857422%)" offset="0.152344"/><stop stop-opacity="1" stop-color="rgb(28.800964%, 25.708008%, 78.897095%)" offset="0.15625"/><stop stop-opacity="1" stop-color="rgb(29.199219%, 25.950623%, 78.936768%)" offset="0.160156"/><stop stop-opacity="1" stop-color="rgb(29.597473%, 26.193237%, 78.97644%)" offset="0.164062"/><stop stop-opacity="1" stop-color="rgb(29.995728%, 26.435852%, 79.014587%)" offset="0.167969"/><stop stop-opacity="1" stop-color="rgb(30.395508%, 26.678467%, 79.05426%)" offset="0.171875"/><stop stop-opacity="1" stop-color="rgb(30.793762%, 26.921082%, 79.093933%)" offset="0.175781"/><stop stop-opacity="1" stop-color="rgb(31.193542%, 27.163696%, 79.133606%)" offset="0.179688"/><stop stop-opacity="1" stop-color="rgb(31.591797%, 27.404785%, 79.171753%)" offset="0.183594"/><stop stop-opacity="1" stop-color="rgb(31.991577%, 27.6474%, 79.211426%)" offset="0.1875"/><stop stop-opacity="1" stop-color="rgb(32.389832%, 27.890015%, 79.249573%)" offset="0.191406"/><stop stop-opacity="1" stop-color="rgb(32.788086%, 28.132629%, 79.289246%)" offset="0.195312"/><stop stop-opacity="1" stop-color="rgb(33.18634%, 28.375244%, 79.328918%)" offset="0.199219"/><stop stop-opacity="1" stop-color="rgb(33.586121%, 28.617859%, 79.368591%)" offset="0.203125"/><stop stop-opacity="1" stop-color="rgb(33.984375%, 28.860474%, 79.406738%)" offset="0.207031"/><stop stop-opacity="1" stop-color="rgb(34.384155%, 29.103088%, 79.446411%)" offset="0.210937"/><stop stop-opacity="1" stop-color="rgb(34.78241%, 29.345703%, 79.486084%)" offset="0.214844"/><stop stop-opacity="1" stop-color="rgb(35.18219%, 29.588318%, 79.525757%)" offset="0.21875"/><stop stop-opacity="1" stop-color="rgb(35.580444%, 29.830933%, 79.563904%)" offset="0.222656"/><stop stop-opacity="1" stop-color="rgb(35.980225%, 30.073547%, 79.603577%)" offset="0.226562"/><stop stop-opacity="1" stop-color="rgb(36.378479%, 30.316162%, 79.641724%)" offset="0.230469"/><stop stop-opacity="1" stop-color="rgb(36.776733%, 30.558777%, 79.681396%)" offset="0.234375"/><stop stop-opacity="1" stop-color="rgb(37.174988%, 30.799866%, 79.721069%)" offset="0.238281"/><stop stop-opacity="1" stop-color="rgb(37.574768%, 31.04248%, 79.760742%)" offset="0.242188"/><stop stop-opacity="1" stop-color="rgb(37.973022%, 31.285095%, 79.798889%)" offset="0.246094"/><stop stop-opacity="1" stop-color="rgb(38.372803%, 31.52771%, 79.838562%)" offset="0.25"/><stop stop-opacity="1" stop-color="rgb(38.771057%, 31.770325%, 79.878235%)" offset="0.253906"/><stop stop-opacity="1" stop-color="rgb(39.170837%, 32.012939%, 79.917908%)" offset="0.257812"/><stop stop-opacity="1" stop-color="rgb(39.569092%, 32.255554%, 79.956055%)" offset="0.261719"/><stop stop-opacity="1" stop-color="rgb(39.967346%, 32.498169%, 79.995728%)" offset="0.265625"/><stop stop-opacity="1" stop-color="rgb(40.365601%, 32.740784%, 80.0354%)" offset="0.269531"/><stop stop-opacity="1" stop-color="rgb(40.765381%, 32.983398%, 80.075073%)" offset="0.273438"/><stop stop-opacity="1" stop-color="rgb(41.163635%, 33.226013%, 80.11322%)" offset="0.277344"/><stop stop-opacity="1" stop-color="rgb(41.563416%, 33.468628%, 80.152893%)" offset="0.28125"/><stop stop-opacity="1" stop-color="rgb(41.96167%, 33.711243%, 80.19104%)" offset="0.285156"/><stop stop-opacity="1" stop-color="rgb(42.36145%, 33.953857%, 80.230713%)" offset="0.289062"/><stop stop-opacity="1" stop-color="rgb(42.759705%, 34.196472%, 80.270386%)" offset="0.292969"/><stop stop-opacity="1" stop-color="rgb(43.159485%, 34.439087%, 80.310059%)" offset="0.296875"/><stop stop-opacity="1" stop-color="rgb(43.557739%, 34.680176%, 80.348206%)" offset="0.300781"/><stop stop-opacity="1" stop-color="rgb(43.955994%, 34.922791%, 80.387878%)" offset="0.304688"/><stop stop-opacity="1" stop-color="rgb(44.354248%, 35.165405%, 80.427551%)" offset="0.308594"/><stop stop-opacity="1" stop-color="rgb(44.754028%, 35.40802%, 80.467224%)" offset="0.3125"/><stop stop-opacity="1" stop-color="rgb(45.152283%, 35.650635%, 80.505371%)" offset="0.316406"/><stop stop-opacity="1" stop-color="rgb(45.552063%, 35.89325%, 80.545044%)" offset="0.320312"/><stop stop-opacity="1" stop-color="rgb(45.950317%, 36.135864%, 80.583191%)" offset="0.324219"/><stop stop-opacity="1" stop-color="rgb(46.350098%, 36.378479%, 80.622864%)" offset="0.328125"/><stop stop-opacity="1" stop-color="rgb(46.748352%, 36.621094%, 80.662537%)" offset="0.332031"/><stop stop-opacity="1" stop-color="rgb(47.148132%, 36.863708%, 80.702209%)" offset="0.335937"/><stop stop-opacity="1" stop-color="rgb(47.546387%, 37.106323%, 80.740356%)" offset="0.339844"/><stop stop-opacity="1" stop-color="rgb(47.944641%, 37.348938%, 80.780029%)" offset="0.34375"/><stop stop-opacity="1" stop-color="rgb(48.342896%, 37.591553%, 80.819702%)" offset="0.347656"/><stop stop-opacity="1" stop-color="rgb(48.742676%, 37.834167%, 80.859375%)" offset="0.351562"/><stop stop-opacity="1" stop-color="rgb(49.14093%, 38.076782%, 80.897522%)" offset="0.355469"/><stop stop-opacity="1" stop-color="rgb(49.54071%, 38.319397%, 80.937195%)" offset="0.359375"/><stop stop-opacity="1" stop-color="rgb(49.938965%, 38.560486%, 80.975342%)" offset="0.363281"/><stop stop-opacity="1" stop-color="rgb(50.338745%, 38.803101%, 81.015015%)" offset="0.367187"/><stop stop-opacity="1" stop-color="rgb(50.737%, 39.045715%, 81.054688%)" offset="0.371094"/><stop stop-opacity="1" stop-color="rgb(51.135254%, 39.28833%, 81.09436%)" offset="0.375"/><stop stop-opacity="1" stop-color="rgb(51.533508%, 39.530945%, 81.132507%)" offset="0.378906"/><stop stop-opacity="1" stop-color="rgb(51.933289%, 39.77356%, 81.17218%)" offset="0.382812"/><stop stop-opacity="1" stop-color="rgb(52.331543%, 40.016174%, 81.211853%)" offset="0.386719"/><stop stop-opacity="1" stop-color="rgb(52.731323%, 40.258789%, 81.251526%)" offset="0.390625"/><stop stop-opacity="1" stop-color="rgb(53.129578%, 40.501404%, 81.289673%)" offset="0.394531"/><stop stop-opacity="1" stop-color="rgb(53.529358%, 40.744019%, 81.329346%)" offset="0.398438"/><stop stop-opacity="1" stop-color="rgb(53.927612%, 40.986633%, 81.367493%)" offset="0.402344"/><stop stop-opacity="1" stop-color="rgb(54.327393%, 41.229248%, 81.407166%)" offset="0.40625"/><stop stop-opacity="1" stop-color="rgb(54.725647%, 41.471863%, 81.446838%)" offset="0.410156"/><stop stop-opacity="1" stop-color="rgb(55.123901%, 41.714478%, 81.486511%)" offset="0.414062"/><stop stop-opacity="1" stop-color="rgb(55.522156%, 41.955566%, 81.524658%)" offset="0.417969"/><stop stop-opacity="1" stop-color="rgb(55.921936%, 42.198181%, 81.564331%)" offset="0.421875"/><stop stop-opacity="1" stop-color="rgb(56.32019%, 42.440796%, 81.604004%)" offset="0.425781"/><stop stop-opacity="1" stop-color="rgb(56.719971%, 42.683411%, 81.643677%)" offset="0.429688"/><stop stop-opacity="1" stop-color="rgb(57.118225%, 42.926025%, 81.681824%)" offset="0.433594"/><stop stop-opacity="1" stop-color="rgb(57.518005%, 43.16864%, 81.721497%)" offset="0.4375"/><stop stop-opacity="1" stop-color="rgb(57.91626%, 43.411255%, 81.761169%)" offset="0.441406"/><stop stop-opacity="1" stop-color="rgb(58.31604%, 43.65387%, 81.800842%)" offset="0.445312"/><stop stop-opacity="1" stop-color="rgb(58.714294%, 43.896484%, 81.838989%)" offset="0.449219"/><stop stop-opacity="1" stop-color="rgb(59.112549%, 44.139099%, 81.878662%)" offset="0.453125"/><stop stop-opacity="1" stop-color="rgb(59.510803%, 44.381714%, 81.916809%)" offset="0.457031"/><stop stop-opacity="1" stop-color="rgb(59.910583%, 44.624329%, 81.956482%)" offset="0.460938"/><stop stop-opacity="1" stop-color="rgb(60.308838%, 44.866943%, 81.996155%)" offset="0.464844"/><stop stop-opacity="1" stop-color="rgb(60.708618%, 45.109558%, 82.035828%)" offset="0.46875"/><stop stop-opacity="1" stop-color="rgb(61.106873%, 45.352173%, 82.073975%)" offset="0.472656"/><stop stop-opacity="1" stop-color="rgb(61.506653%, 45.594788%, 82.113647%)" offset="0.476562"/><stop stop-opacity="1" stop-color="rgb(61.904907%, 45.835876%, 82.15332%)" offset="0.480469"/><stop stop-opacity="1" stop-color="rgb(62.303162%, 46.078491%, 82.192993%)" offset="0.484375"/><stop stop-opacity="1" stop-color="rgb(62.701416%, 46.321106%, 82.23114%)" offset="0.488281"/><stop stop-opacity="1" stop-color="rgb(63.101196%, 46.563721%, 82.270813%)" offset="0.492187"/><stop stop-opacity="1" stop-color="rgb(63.499451%, 46.806335%, 82.30896%)" offset="0.496094"/><stop stop-opacity="1" stop-color="rgb(63.899231%, 47.04895%, 82.348633%)" offset="0.5"/><stop stop-opacity="1" stop-color="rgb(64.297485%, 47.291565%, 82.388306%)" offset="0.503906"/><stop stop-opacity="1" stop-color="rgb(64.697266%, 47.53418%, 82.427979%)" offset="0.507812"/><stop stop-opacity="1" stop-color="rgb(65.09552%, 47.776794%, 82.466125%)" offset="0.511719"/><stop stop-opacity="1" stop-color="rgb(65.4953%, 48.019409%, 82.505798%)" offset="0.515625"/><stop stop-opacity="1" stop-color="rgb(65.893555%, 48.262024%, 82.545471%)" offset="0.519531"/><stop stop-opacity="1" stop-color="rgb(66.291809%, 48.504639%, 82.585144%)" offset="0.523438"/><stop stop-opacity="1" stop-color="rgb(66.690063%, 48.747253%, 82.623291%)" offset="0.527344"/><stop stop-opacity="1" stop-color="rgb(67.089844%, 48.989868%, 82.662964%)" offset="0.53125"/><stop stop-opacity="1" stop-color="rgb(67.488098%, 49.232483%, 82.701111%)" offset="0.535156"/><stop stop-opacity="1" stop-color="rgb(67.887878%, 49.475098%, 82.740784%)" offset="0.539062"/><stop stop-opacity="1" stop-color="rgb(68.286133%, 49.716187%, 82.780457%)" offset="0.542969"/><stop stop-opacity="1" stop-color="rgb(68.685913%, 49.958801%, 82.820129%)" offset="0.546875"/><stop stop-opacity="1" stop-color="rgb(69.084167%, 50.201416%, 82.858276%)" offset="0.550781"/><stop stop-opacity="1" stop-color="rgb(69.482422%, 50.444031%, 82.897949%)" offset="0.554688"/><stop stop-opacity="1" stop-color="rgb(69.880676%, 50.686646%, 82.937622%)" offset="0.558594"/><stop stop-opacity="1" stop-color="rgb(70.280457%, 50.92926%, 82.977295%)" offset="0.5625"/><stop stop-opacity="1" stop-color="rgb(70.678711%, 51.171875%, 83.015442%)" offset="0.566406"/><stop stop-opacity="1" stop-color="rgb(71.078491%, 51.41449%, 83.055115%)" offset="0.570312"/><stop stop-opacity="1" stop-color="rgb(71.476746%, 51.657104%, 83.093262%)" offset="0.574219"/><stop stop-opacity="1" stop-color="rgb(71.876526%, 51.899719%, 83.132935%)" offset="0.578125"/><stop stop-opacity="1" stop-color="rgb(72.27478%, 52.142334%, 83.172607%)" offset="0.582031"/><stop stop-opacity="1" stop-color="rgb(72.674561%, 52.384949%, 83.21228%)" offset="0.585938"/><stop stop-opacity="1" stop-color="rgb(73.072815%, 52.627563%, 83.250427%)" offset="0.589844"/><stop stop-opacity="1" stop-color="rgb(73.471069%, 52.870178%, 83.2901%)" offset="0.59375"/><stop stop-opacity="1" stop-color="rgb(73.869324%, 53.111267%, 83.329773%)" offset="0.597656"/><stop stop-opacity="1" stop-color="rgb(74.269104%, 53.353882%, 83.369446%)" offset="0.601562"/><stop stop-opacity="1" stop-color="rgb(74.667358%, 53.596497%, 83.407593%)" offset="0.605469"/><stop stop-opacity="1" stop-color="rgb(75.067139%, 53.839111%, 83.447266%)" offset="0.609375"/><stop stop-opacity="1" stop-color="rgb(75.465393%, 54.081726%, 83.486938%)" offset="0.613281"/><stop stop-opacity="1" stop-color="rgb(75.865173%, 54.324341%, 83.526611%)" offset="0.617188"/><stop stop-opacity="1" stop-color="rgb(76.263428%, 54.566956%, 83.564758%)" offset="0.621094"/><stop stop-opacity="1" stop-color="rgb(76.663208%, 54.80957%, 83.604431%)" offset="0.625"/><stop stop-opacity="1" stop-color="rgb(77.061462%, 55.052185%, 83.642578%)" offset="0.628906"/><stop stop-opacity="1" stop-color="rgb(77.459717%, 55.2948%, 83.682251%)" offset="0.632812"/><stop stop-opacity="1" stop-color="rgb(77.857971%, 55.537415%, 83.721924%)" offset="0.636719"/><stop stop-opacity="1" stop-color="rgb(78.257751%, 55.780029%, 83.761597%)" offset="0.640625"/><stop stop-opacity="1" stop-color="rgb(78.656006%, 56.022644%, 83.799744%)" offset="0.644531"/><stop stop-opacity="1" stop-color="rgb(79.055786%, 56.265259%, 83.839417%)" offset="0.648438"/><stop stop-opacity="1" stop-color="rgb(79.454041%, 56.507874%, 83.879089%)" offset="0.652344"/><stop stop-opacity="1" stop-color="rgb(79.853821%, 56.750488%, 83.918762%)" offset="0.65625"/><stop stop-opacity="1" stop-color="rgb(80.252075%, 56.991577%, 83.956909%)" offset="0.660156"/><stop stop-opacity="1" stop-color="rgb(80.65033%, 57.234192%, 83.996582%)" offset="0.664062"/><stop stop-opacity="1" stop-color="rgb(81.048584%, 57.476807%, 84.034729%)" offset="0.667969"/><stop stop-opacity="1" stop-color="rgb(81.448364%, 57.719421%, 84.074402%)" offset="0.671875"/><stop stop-opacity="1" stop-color="rgb(81.846619%, 57.962036%, 84.114075%)" offset="0.675781"/><stop stop-opacity="1" stop-color="rgb(82.246399%, 58.204651%, 84.153748%)" offset="0.679688"/><stop stop-opacity="1" stop-color="rgb(82.644653%, 58.447266%, 84.191895%)" offset="0.683594"/><stop stop-opacity="1" stop-color="rgb(83.044434%, 58.68988%, 84.231567%)" offset="0.6875"/><stop stop-opacity="1" stop-color="rgb(83.442688%, 58.932495%, 84.27124%)" offset="0.691406"/><stop stop-opacity="1" stop-color="rgb(83.842468%, 59.17511%, 84.310913%)" offset="0.695312"/><stop stop-opacity="1" stop-color="rgb(84.240723%, 59.417725%, 84.34906%)" offset="0.699219"/><stop stop-opacity="1" stop-color="rgb(84.638977%, 59.660339%, 84.388733%)" offset="0.703125"/><stop stop-opacity="1" stop-color="rgb(85.037231%, 59.902954%, 84.42688%)" offset="0.707031"/><stop stop-opacity="1" stop-color="rgb(85.437012%, 60.145569%, 84.466553%)" offset="0.710938"/><stop stop-opacity="1" stop-color="rgb(85.835266%, 60.388184%, 84.506226%)" offset="0.714844"/><stop stop-opacity="1" stop-color="rgb(86.235046%, 60.630798%, 84.545898%)" offset="0.71875"/><stop stop-opacity="1" stop-color="rgb(86.633301%, 60.871887%, 84.584045%)" offset="0.722656"/><stop stop-opacity="1" stop-color="rgb(87.033081%, 61.114502%, 84.623718%)" offset="0.726562"/><stop stop-opacity="1" stop-color="rgb(87.431335%, 61.357117%, 84.663391%)" offset="0.730469"/><stop stop-opacity="1" stop-color="rgb(87.831116%, 61.599731%, 84.703064%)" offset="0.734375"/><stop stop-opacity="1" stop-color="rgb(88.22937%, 61.842346%, 84.741211%)" offset="0.738281"/><stop stop-opacity="1" stop-color="rgb(88.627625%, 62.084961%, 84.780884%)" offset="0.742188"/><stop stop-opacity="1" stop-color="rgb(89.025879%, 62.327576%, 84.819031%)" offset="0.746094"/><stop stop-opacity="1" stop-color="rgb(89.425659%, 62.57019%, 84.858704%)" offset="0.75"/><stop stop-opacity="1" stop-color="rgb(89.823914%, 62.812805%, 84.898376%)" offset="0.753906"/><stop stop-opacity="1" stop-color="rgb(90.223694%, 63.05542%, 84.938049%)" offset="0.757812"/><stop stop-opacity="1" stop-color="rgb(90.621948%, 63.298035%, 84.976196%)" offset="0.761719"/><stop stop-opacity="1" stop-color="rgb(91.021729%, 63.540649%, 85.015869%)" offset="0.765625"/><stop stop-opacity="1" stop-color="rgb(91.419983%, 63.783264%, 85.055542%)" offset="0.769531"/><stop stop-opacity="1" stop-color="rgb(91.818237%, 64.025879%, 85.095215%)" offset="0.773438"/><stop stop-opacity="1" stop-color="rgb(92.216492%, 64.268494%, 85.133362%)" offset="0.777344"/><stop stop-opacity="1" stop-color="rgb(92.616272%, 64.511108%, 85.173035%)" offset="0.78125"/><stop stop-opacity="1" stop-color="rgb(93.014526%, 64.752197%, 85.212708%)" offset="0.785156"/><stop stop-opacity="1" stop-color="rgb(93.414307%, 64.994812%, 85.25238%)" offset="0.789062"/><stop stop-opacity="1" stop-color="rgb(93.812561%, 65.237427%, 85.290527%)" offset="0.792969"/><stop stop-opacity="1" stop-color="rgb(94.212341%, 65.480042%, 85.3302%)" offset="0.796875"/><stop stop-opacity="1" stop-color="rgb(94.610596%, 65.722656%, 85.368347%)" offset="0.800781"/><stop stop-opacity="1" stop-color="rgb(95.010376%, 65.965271%, 85.40802%)" offset="0.804688"/><stop stop-opacity="1" stop-color="rgb(95.40863%, 66.207886%, 85.447693%)" offset="0.808594"/><stop stop-opacity="1" stop-color="rgb(95.806885%, 66.4505%, 85.487366%)" offset="0.8125"/><stop stop-opacity="1" stop-color="rgb(96.205139%, 66.693115%, 85.525513%)" offset="0.816406"/><stop stop-opacity="1" stop-color="rgb(96.604919%, 66.93573%, 85.565186%)" offset="0.820312"/><stop stop-opacity="1" stop-color="rgb(97.003174%, 67.178345%, 85.604858%)" offset="0.824219"/><stop stop-opacity="1" stop-color="rgb(97.402954%, 67.420959%, 85.644531%)" offset="0.828125"/><stop stop-opacity="1" stop-color="rgb(97.801208%, 67.663574%, 85.682678%)" offset="0.832031"/><stop stop-opacity="1" stop-color="rgb(98.200989%, 67.906189%, 85.722351%)" offset="0.835938"/><stop stop-opacity="1" stop-color="rgb(98.599243%, 68.147278%, 85.760498%)" offset="0.839844"/><stop stop-opacity="1" stop-color="rgb(98.997498%, 68.389893%, 85.800171%)" offset="0.84375"/><stop stop-opacity="1" stop-color="rgb(99.395752%, 68.632507%, 85.839844%)" offset="0.847656"/><stop stop-opacity="1" stop-color="rgb(99.795532%, 68.875122%, 85.879517%)" offset="0.851562"/><stop stop-opacity="1" stop-color="rgb(99.897766%, 68.936157%, 85.888672%)" offset="0.859375"/><stop stop-opacity="1" stop-color="rgb(100%, 68.998718%, 85.899353%)" offset="0.875"/><stop stop-opacity="1" stop-color="rgb(100%, 68.998718%, 85.899353%)" offset="1"/></linearGradient></defs><rect x="-37.5" width="450" fill="#ffffff" y="-37.499999" height="449.999989" fill-opacity="1"/><rect x="-37.5" width="450" fill="#ffffff" y="-37.499999" height="449.999989" fill-opacity="1"/><g clip-path="url(#a581b206cf)"><g clip-path="url(#eb3b3f5875)"><path fill="url(#31ddc927e7)" d="M 112.5 112.5 L 112.5 262.5 L 262.5 262.5 L 262.5 112.5 Z M 112.5 112.5 " fill-rule="nonzero"/></g></g><path fill="#ffffff" d="M 230.117188 162.859375 C 229.871094 160.832031 228.941406 158.949219 227.472656 157.527344 C 225.8125 155.921875 223.578125 155.039062 221.171875 155.039062 L 153.828125 155.039062 C 151.421875 155.039062 149.1875 155.921875 147.527344 157.527344 C 146.058594 158.949219 145.128906 160.832031 144.882812 162.859375 C 144.617188 163.785156 144.484375 164.746094 144.484375 165.714844 L 144.484375 209.28125 C 144.484375 215.167969 149.378906 219.960938 155.398438 219.960938 L 219.601562 219.960938 C 225.621094 219.960938 230.515625 215.171875 230.515625 209.28125 L 230.515625 165.714844 C 230.515625 164.746094 230.382812 163.785156 230.117188 162.859375 Z M 153.828125 160.488281 L 221.171875 160.488281 C 223.421875 160.488281 224.59375 162.117188 224.722656 163.632812 C 224.757812 164.042969 224.734375 164.667969 224.40625 165.3125 C 224.183594 165.753906 223.820312 166.203125 223.238281 166.601562 L 189.570312 189.492188 C 188.949219 189.910156 188.226562 190.121094 187.5 190.121094 C 186.957031 190.121094 186.414062 190.003906 185.914062 189.765625 C 185.75 189.6875 185.589844 189.59375 185.433594 189.492188 L 151.757812 166.601562 C 151.714844 166.570312 151.667969 166.539062 151.628906 166.507812 C 151.320312 166.28125 151.078125 166.039062 150.890625 165.789062 C 150.863281 165.753906 150.839844 165.71875 150.8125 165.683594 C 150.761719 165.613281 150.71875 165.542969 150.679688 165.472656 C 150.269531 164.773438 150.238281 164.078125 150.277344 163.636719 C 150.410156 162.117188 151.578125 160.488281 153.828125 160.488281 Z M 225.066406 209.285156 C 225.066406 212.167969 222.617188 214.511719 219.601562 214.511719 L 155.398438 214.511719 C 152.382812 214.511719 149.933594 212.167969 149.933594 209.285156 L 149.933594 171.945312 L 182.367188 193.996094 C 183.902344 195.039062 185.699219 195.5625 187.5 195.5625 C 188.058594 195.5625 188.617188 195.511719 189.167969 195.410156 C 189.171875 195.410156 189.171875 195.410156 189.175781 195.40625 C 189.210938 195.402344 189.242188 195.394531 189.277344 195.386719 C 189.984375 195.25 190.679688 195.027344 191.34375 194.71875 C 191.789062 194.515625 192.21875 194.273438 192.628906 193.996094 L 207.289062 184.027344 L 225.066406 171.945312 Z M 225.066406 209.285156 " fill-opacity="1" fill-rule="nonzero"/></svg>