<?xml version="1.0" encoding="utf-8"?>
<!-- Generated by Mocodo 4.2.1 -->
<svg width="360" height="228" viewBox="0 0 360 228" xmlns="http://www.w3.org/2000/svg">
<rect x="0" y="0" width="360" height="228" fill="#f7f7f7" stroke="none" stroke-width="0"/>

<!-- Association ECRIT_PAR -->
<g>
	<line x1="300" y1="51" x2="175" y2="51" stroke="#d6604d" stroke-width="2"/>
	<line x1="55" y1="51" x2="175" y2="51" stroke="#d6604d" stroke-width="2"/>
	<g>
		<path d="M203 26 a14 14 90 0 1 14 14 V51 h-84 V40 a14 14 90 0 1 14 -14" fill="#f4a582" stroke="#f4a582" stroke-width="0"/>
		<path d="M217 51 v11 a14 14 90 0 1 -14 14 H147 a14 14 90 0 1 -14 -14 V51 H84" fill="#fddbc7" stroke="#fddbc7" stroke-width="0"/>
		<rect x="133" y="26" width="84" height="50" fill="none" rx="14" stroke="#d6604d" stroke-width="2"/>
		<line x1="133" y1="51" x2="217" y2="51" stroke="#d6604d" stroke-width="1"/>
		<text x="141" y="43.75" fill="#000000" font-family="Verdana" font-size="12">ECRIT_PAR</text>
	</g>
	<text x="223" y="68" fill="#2166ac" font-family="Verdana" font-size="12">1,1</text>
	<text x="106" y="68" fill="#2166ac" font-family="Verdana" font-size="12">0,N</text>
</g>

<!-- Association A -->
<g>
	<line x1="55" y1="51" x2="55" y2="160" stroke="#d6604d" stroke-width="2"/>
	<line x1="175" y1="160" x2="55" y2="160" stroke="#d6604d" stroke-width="2"/>
	<g>
		<path d="M53 135 a14 14 90 0 1 14 14 V160 h-24 V149 a14 14 90 0 1 14 -14" fill="#f4a582" stroke="#f4a582" stroke-width="0"/>
		<path d="M67 160 v11 a14 14 90 0 1 -14 14 H57 a14 14 90 0 1 -14 -14 V160 H24" fill="#fddbc7" stroke="#fddbc7" stroke-width="0"/>
		<rect x="43" y="135" width="24" height="50" fill="none" rx="14" stroke="#d6604d" stroke-width="2"/>
		<line x1="43" y1="160" x2="67" y2="160" stroke="#d6604d" stroke-width="1"/>
		<text x="51" y="152.75" fill="#000000" font-family="Verdana" font-size="12">A</text>
	</g>
	<text x="60" y="110" fill="#2166ac" font-family="Verdana" font-size="12">0,N</text>
	<text x="110" y="177" fill="#2166ac" font-family="Verdana" font-size="12">1,1</text>
</g>

<!-- Association CONTIENT -->
<g>
	<line x1="175" y1="160" x2="300" y2="160" stroke="#d6604d" stroke-width="2"/>
	<line x1="300" y1="51" x2="300" y2="160" stroke="#d6604d" stroke-width="2"/>
	<g>
		<path d="M325 135 a14 14 90 0 1 14 14 V160 h-78 V149 a14 14 90 0 1 14 -14" fill="#f4a582" stroke="#f4a582" stroke-width="0"/>
		<path d="M339 160 v11 a14 14 90 0 1 -14 14 H275 a14 14 90 0 1 -14 -14 V160 H78" fill="#fddbc7" stroke="#fddbc7" stroke-width="0"/>
		<rect x="261" y="135" width="78" height="50" fill="none" rx="14" stroke="#d6604d" stroke-width="2"/>
		<line x1="261" y1="160" x2="339" y2="160" stroke="#d6604d" stroke-width="1"/>
		<text x="268" y="152.75" fill="#000000" font-family="Verdana" font-size="12">CONTIENT</text>
	</g>
	<text x="219" y="177" fill="#2166ac" font-family="Verdana" font-size="12">0,N</text>
	<text x="305" y="93" fill="#2166ac" font-family="Verdana" font-size="12">1,1</text>
</g>

<!-- Entity MEMBRE -->
<g>
	<g>
		<rect x="9" y="9" width="92" height="25" fill="#92c5de" stroke="none" stroke-width="0" opacity="1"/>
		<rect x="9" y="34" width="92" height="59" fill="#d1e5f0" stroke="none" stroke-width="0" opacity="1"/>
		<rect x="9" y="9" width="92" height="84" fill="none" stroke="#4393c3" stroke-width="2" opacity="1"/>
		<line x1="9" y1="34" x2="101" y2="34" stroke="#4393c3" stroke-width="1"/>
	</g>
	<text x="29" y="26.75" fill="#000000" font-family="Verdana" font-size="12">MEMBRE</text>
	<text x="14" y="51.8" fill="#000000" font-family="Verdana" font-size="12">pseudo</text>
	<line x1="14" y1="54" x2="58" y2="54" stroke="#000000" stroke-width="1"/>
	<text x="14" y="68.8" fill="#000000" font-family="Verdana" font-size="12">email</text>
	<text x="14" y="85.8" fill="#000000" font-family="Verdana" font-size="12">mot de passe</text>
</g>

<!-- Entity COMMENTAIRE -->
<g>
	<g>
		<rect x="249" y="26" width="102" height="25" fill="#92c5de" stroke="none" stroke-width="0" opacity="1"/>
		<rect x="249" y="51" width="102" height="25" fill="#d1e5f0" stroke="none" stroke-width="0" opacity="1"/>
		<rect x="249" y="26" width="102" height="50" fill="none" stroke="#4393c3" stroke-width="2" opacity="1"/>
		<line x1="249" y1="51" x2="351" y2="51" stroke="#4393c3" stroke-width="1"/>
	</g>
	<text x="254" y="43.75" fill="#000000" font-family="Verdana" font-size="12">COMMENTAIRE</text>
	<text x="254" y="68.8" fill="#000000" font-family="Verdana" font-size="12">contenu</text>
	<line x1="254" y1="71" x2="303" y2="71" stroke="#000000" stroke-width="1"/>
</g>

<!-- Entity RECETTE -->
<g>
	<g>
		<rect x="136" y="101" width="78" height="25" fill="#92c5de" stroke="none" stroke-width="0" opacity="1"/>
		<rect x="136" y="126" width="78" height="93" fill="#d1e5f0" stroke="none" stroke-width="0" opacity="1"/>
		<rect x="136" y="101" width="78" height="118" fill="none" stroke="#4393c3" stroke-width="2" opacity="1"/>
		<line x1="136" y1="126" x2="214" y2="126" stroke="#4393c3" stroke-width="1"/>
	</g>
	<text x="148" y="118.75" fill="#000000" font-family="Verdana" font-size="12">RECETTE</text>
	<text x="141" y="143.8" fill="#000000" font-family="Verdana" font-size="12">titre</text>
	<line x1="141" y1="146" x2="167" y2="146" stroke="#000000" stroke-width="1"/>
	<text x="141" y="160.8" fill="#000000" font-family="Verdana" font-size="12">image</text>
	<text x="141" y="177.8" fill="#000000" font-family="Verdana" font-size="12">categorie</text>
	<text x="141" y="194.8" fill="#000000" font-family="Verdana" font-size="12">ingredients</text>
	<text x="141" y="211.8" fill="#000000" font-family="Verdana" font-size="12">etapes</text>
</g>
</svg>